<?xml version="1.0" encoding="UTF-8"?>
<svg width="12px" height="12px" viewBox="0 0 12 12" version="1.1" xmlns="http://www.w3.org/2000/svg" xmlns:xlink="http://www.w3.org/1999/xlink">
    <title>Untitled</title>
    <g id="Page-1" stroke="none" stroke-width="1" fill="none" fill-rule="evenodd">
        <path d="M11.3372851,0 L0.6623197,0 C0.296779293,0 0,0.296186524 0,0.6623197 L0,11.3372851 C0,11.7034183 0.296779293,12 0.6623197,12 L6.40960285,12 L6.40960285,7.35289468 L4.84568267,7.35289468 L4.84568267,5.54159257 L6.40960285,5.54159257 L6.40960285,4.20588816 C6.40960285,2.65619443 7.35566094,1.81189488 8.73839162,1.81189488 C9.40130409,1.81189488 9.96976882,1.86148982 10.1355463,1.88302707 L10.1355463,3.50286505 L9.17644734,3.50326023 C8.42461964,3.50326023 8.27958901,3.86069947 8.27958901,4.38490417 L8.27958901,5.5409998 L10.0735033,5.5409998 L9.83876704,7.35210433 L8.27939142,7.35210433 L8.27939142,11.9994072 L11.3370875,11.9994072 C11.7030231,11.9994072 12,11.7024303 12,11.3372851 L12,0.661924521 C12,0.296186524 11.7034183,0 11.3372851,0" id="Facebook" fill="#082044" transform="translate(6.000000, 6.000000) rotate(-360.000000) translate(-6.000000, -6.000000) "></path>
    </g>
</svg>