<?xml version="1.0" encoding="UTF-8"?>
<svg width="6px" height="10px" viewBox="0 0 6 10" version="1.1" xmlns="http://www.w3.org/2000/svg" xmlns:xlink="http://www.w3.org/1999/xlink">
    <title>Untitled</title>
    <g id="Page-1" stroke="none" stroke-width="1" fill="none" fill-rule="evenodd">
        <path d="M5.68567403,4.1867505 L2.39910277,0.486361066 C2.17267928,0.21408132 1.84590902,0.0440987664 1.48054384,0.00794863056 C1.12118232,-0.0305089607 0.768682115,0.0717882321 0.488225748,0.288689047 C-0.0709716581,0.721721525 -0.163599449,1.5124096 0.329557772,2.10388736 L2.90255197,5.00051313 L0.338134419,7.88713993 C-0.14387316,8.39708759 -0.106135912,9.19162143 0.423043228,9.65849659 C0.674338994,9.88001232 0.997678599,10 1.33988683,10 C1.35961312,10 1.3793394,9.99923085 1.39820803,9.9984617 C1.76443087,9.98461696 2.09977778,9.83386321 2.39138379,9.52389502 L5.68567403,5.81427576 C5.91552818,5.55737905 6.02702459,5.2181831 5.99443333,4.88360205 C5.96956105,4.62593619 5.86235296,4.38519167 5.68567403,4.1867505" id="Fill-1" fill="#082044"></path>
    </g>
</svg>