<?xml version="1.0" encoding="UTF-8"?>
<svg width="14px" height="10px" viewBox="0 0 14 10" version="1.1" xmlns="http://www.w3.org/2000/svg" xmlns:xlink="http://www.w3.org/1999/xlink">
    <title>Untitled</title>
    <g id="Page-1" stroke="none" stroke-width="1" fill="none" fill-rule="evenodd">
        <path d="M9.12597587,5.20092454 L5.29769784,7.04396153 C5.19568938,7.0931006 5.07785883,7.01799722 5.07785883,6.9039627 L5.07785883,3.10265866 C5.07785883,2.9869688 5.19878699,2.91201869 5.30100802,2.96428451 L9.12928605,4.9225209 C9.24310793,4.98073368 9.24113397,5.14550131 9.12597587,5.20092454 M11.0923794,0 L2.90762059,0 C1.30178459,0 0,1.3140333 0,2.93500952 L0,7.06502114 C0,8.6859667 1.30178459,10 2.90762059,10 L11.0923794,10 C12.6982154,10 14,8.6859667 14,7.06502114 L14,2.93500952 C14,1.3140333 12.6982154,0 11.0923794,0" id="Youtube" fill="#082044"></path>
    </g>
</svg>