<?xml version="1.0" encoding="UTF-8"?>
<svg width="10px" height="12px" viewBox="0 0 10 12" version="1.1" xmlns="http://www.w3.org/2000/svg" xmlns:xlink="http://www.w3.org/1999/xlink">
    <title>Untitled</title>
    <g id="Page-1" stroke="none" stroke-width="1" fill="none" fill-rule="evenodd">
        <path d="M5.16732056,0 C1.79398415,0 0,2.10759546 0,4.40569955 C0,5.47149782 0.610816217,6.80055802 1.58858374,7.22207711 C1.7370567,7.28733007 1.81783214,7.25957881 1.85091161,7.12532273 C1.88014463,7.02331811 2.00861605,6.53204586 2.07092853,6.30028536 C2.09016078,6.226032 2.08016001,6.16152907 2.01861682,6.09177592 C1.69397646,5.72575934 1.43626433,5.05897914 1.43626433,4.4334508 C1.43626433,2.83062821 2.74328795,1.27430772 4.96730518,1.27430772 C6.89053004,1.27430772 8.23601816,2.49236289 8.23601816,4.2346918 C8.23601816,6.20353098 7.16747442,7.56559267 5.77890607,7.56559267 C5.01038541,7.56559267 4.43803369,6.97756604 4.61958612,6.25003308 C4.83883376,5.38374385 5.26886684,4.45220165 5.26886684,3.82742336 C5.26886684,3.26714798 4.94422648,2.80362699 4.28109855,2.80362699 C3.49873067,2.80362699 2.86406647,3.55891119 2.86406647,4.57295712 C2.86406647,5.2172363 3.09793061,5.65225601 3.09793061,5.65225601 C3.09793061,5.65225601 2.32402492,8.70039407 2.18016771,9.26966985 C1.93707208,10.2334635 2.21324717,11.7942842 2.23709516,11.9285403 C2.25171167,12.0027936 2.33710285,12.0260447 2.38479883,11.9652919 C2.46095854,11.8677875 3.39641511,10.5664786 3.65874298,9.62593599 C3.75413493,9.28317046 4.14570352,7.89335751 4.14570352,7.89335751 C4.40341565,8.34712807 5.14731902,8.72739529 5.93968767,8.72739529 C8.29679206,8.72739529 10,6.70755381 10,4.20094027 C9.99153781,1.79783143 7.88214478,0 5.16732056,0 Z" id="Pinterest" fill="#082044" fill-rule="nonzero"></path>
    </g>
</svg>