<?xml version="1.0" encoding="UTF-8"?>
<svg width="12px" height="12px" viewBox="0 0 12 12" version="1.1" xmlns="http://www.w3.org/2000/svg" xmlns:xlink="http://www.w3.org/1999/xlink">
    <title>Untitled</title>
    <g id="Page-1" stroke="none" stroke-width="1" fill="none" fill-rule="evenodd">
        <path d="M6,4.26315789 C6.96663158,4.26315789 7.73684211,5.03321053 7.73684211,6 C7.73684211,6.96678947 6.96663158,7.73684211 6,7.73684211 C5.03321053,7.73684211 4.26315789,6.96678947 4.26315789,6 C4.26315789,5.03321053 5.03321053,4.26315789 6,4.26315789 L6,4.26315789 Z M6,3 C4.35063158,3 3,4.35063158 3,6 C3,7.64936842 4.35063158,9 6,9 C7.64936842,9 9,7.64936842 9,6 C9,4.35063158 7.64936842,3 6,3 L6,3 Z M9.15789474,2.21052632 C8.80910526,2.21052632 8.52631579,2.49331579 8.52631579,2.84210526 C8.52631579,3.19089474 8.80910526,3.47368421 9.15789474,3.47368421 C9.50668421,3.47368421 9.78947368,3.19089474 9.78947368,2.84210526 C9.78947368,2.49331579 9.50668421,2.21052632 9.15789474,2.21052632 L9.15789474,2.21052632 Z M3.15789474,1.26315789 L8.84210526,1.26315789 C9.90268421,1.26315789 10.7368421,2.09731579 10.7368421,3.15789474 L10.7368421,8.84210526 C10.7368421,9.90268421 9.90268421,10.7368421 8.84210526,10.7368421 L3.15789474,10.7368421 C2.09731579,10.7368421 1.26315789,9.90268421 1.26315789,8.84210526 L1.26315789,3.15789474 C1.26315789,2.09731579 2.09731579,1.26315789 3.15789474,1.26315789 L3.15789474,1.26315789 Z M3.15789474,0 C1.41931579,0 0,1.41931579 0,3.15789474 L0,8.84210526 C0,10.5806842 1.41931579,12 3.15789474,12 L8.84210526,12 C10.5806842,12 12,10.5806842 12,8.84210526 L12,3.15789474 C12,1.41931579 10.5806842,0 8.84210526,0 L3.15789474,0 Z" id="Fill-1" fill="#082044"></path>
    </g>
</svg>