<?xml version="1.0" encoding="UTF-8"?>
<svg width="126px" height="80px" viewBox="0 0 126 80" version="1.1" xmlns="http://www.w3.org/2000/svg" xmlns:xlink="http://www.w3.org/1999/xlink">
    <title>Untitled 2</title>
    <defs>
        <linearGradient x1="36.7005209%" y1="52.3001672%" x2="100%" y2="35.1634225%" id="linearGradient-1">
            <stop stop-color="#373B90" offset="0%"></stop>
            <stop stop-color="#373B90" offset="100%"></stop>
        </linearGradient>
    </defs>
    <g id="Page-1" stroke="none" stroke-width="1" fill="none" fill-rule="evenodd">
        <g id="Group">
            <path d="M125.37288,41.9978731 C125.37288,46.7438191 121.52808,51.1164317 116.7876,51.7636389 L8.58096,68.2133686 C3.84264,68.862738 1.02318154e-14,65.5409362 1.02318154e-14,60.7964317 L1.02318154e-14,26.2955308 C1.02318154e-14,21.5510263 3.84264,17.1791344 8.58096,16.529765 L116.7876,0.0807560126 C121.52808,-0.567171915 125.37288,2.75462989 125.37288,7.49985511 L125.37288,41.9978731 Z" id="Fill-4" fill="url(#linearGradient-1)"></path>
            <path d="M25.0599893,30.8391553 L25.0603216,31.1853326 L25.056648,35.6855128 L20.400408,36.3939812 L20.403288,30.9438911 L20.4029074,30.7570604 C20.3957955,29.5463023 20.2558172,27.3168918 17.500968,27.7374047 C14.6273507,28.1742783 14.5483222,30.6498324 14.544823,32.4402942 L14.544648,32.5878551 L14.533848,52.0905578 C14.533848,54.0891164 14.533848,56.1900173 17.385768,55.7554227 C20.1795626,55.3286391 20.3325113,53.2470145 20.3421022,51.2034396 L20.342808,50.8538011 L20.344248,44.3038911 L25.052328,43.5853326 L25.049448,49.5370443 C25.047288,53.5356029 23.991768,58.7968641 17.282808,59.8195668 C14.680728,60.2181254 12.226248,59.5903776 10.926648,57.6401074 C9.88234484,56.0935924 9.82996634,54.081991 9.82792272,52.3020647 L9.82788673,52.0076749 L9.837288,34.9554227 L9.83751166,34.6677148 C9.8446346,31.4434285 10.0785095,24.8178296 17.754408,23.648756 C24.7460463,22.5822774 25.048713,28.16201 25.0599893,30.8391553 Z M39.5239003,34.8202686 L39.524112,35.0274948 L39.515472,50.0775848 C39.514032,51.8793866 39.413232,56.4451524 33.404832,57.3619092 C27.7823985,58.2192181 27.5129532,54.1854856 27.5018313,51.0783738 L27.5014686,50.6123596 L27.507312,38.2613686 L27.5075725,37.983961 C27.5147714,35.318198 27.7208541,30.5773674 33.619392,29.6783056 C39.329376,28.8074347 39.5176904,32.7498787 39.5239003,34.8202686 Z M54.1800686,32.5671539 L54.1800818,32.7745218 L54.17064,47.8246119 L54.1699924,48.0278 C54.1559544,49.9464927 53.8559486,54.2241485 48.06144,55.106774 C42.4383213,55.964083 42.1675389,51.9310031 42.1557018,48.8233334 L42.155235,48.3572245 L42.16392,36.0069542 L42.1643169,35.729482 C42.172673,33.0632068 42.3767421,28.3243199 48.27528,27.4231704 C53.986656,26.5522996 54.1756896,30.4954171 54.1800686,32.5671539 Z M33.617952,32.9792065 C31.58424,33.2885398 31.5164496,34.8889218 31.5122388,36.0772727 L31.511952,36.1986659 L31.504032,51.950738 L31.5046108,52.1641854 C31.5127136,53.17358 31.634256,54.3315188 33.457392,54.0523596 C35.3878858,53.7580073 35.5517787,52.3362525 35.5607862,51.1578082 L35.561232,51.0325398 L35.571312,35.2321794 C35.571312,33.9810083 35.520192,32.6880353 33.617952,32.9792065 Z M61.161336,17.3775488 L61.142616,52.6806119 L57.086856,53.3004317 L57.104136,17.9966479 L61.161336,17.3775488 Z M78.1780346,22.6773997 L78.1780132,24.2024657 C78.1684511,29.0457102 78.0398952,31.074423 74.8296359,31.7822218 L74.620512,31.8256209 L74.618352,32.0749902 C75.771792,32.0000353 77.573232,31.8739092 78.022512,34.1571524 C78.1138453,34.6976929 78.1644379,34.945348 78.1691457,39.9794997 L78.1689556,41.6062384 C78.1530066,48.332145 77.6835124,50.1058401 71.8365434,51.048377 L71.554032,51.0926479 L64.397232,52.1830984 L64.415952,16.8814767 L72.676512,15.6223776 C77.8334622,14.8338648 78.1612201,16.650559 78.1780346,22.6773997 Z M48.27384,30.7240713 C46.24152,31.0354948 46.173776,32.633926 46.1702171,33.8240976 L46.17,33.9456929 L46.16136,49.6963236 C46.16136,50.7478551 46.15992,52.097765 48.11328,51.7993866 C50.0458593,51.5043385 50.2064681,50.0798721 50.2165427,48.9031878 L50.21712,48.7781254 L50.22576,32.977765 C50.22576,31.7280353 50.17752,30.4350623 48.27384,30.7240713 Z M92.8950019,26.4280445 L92.895768,26.6378011 L92.890728,35.3383416 L84.929688,36.552756 L84.924648,44.0525758 C84.923208,44.8035668 84.923208,46.2529362 86.827608,45.9639272 C88.7112051,45.6748152 88.8240018,44.1244622 88.8296561,43.296781 L88.829928,43.2078911 L88.833528,38.5066299 L92.889288,37.8875308 L92.885688,41.6893326 L92.8852727,41.8700632 C92.87663,43.635946 92.6685259,48.3230863 86.775768,49.2215848 C85.924008,49.3513146 85.121928,49.3736569 84.372408,49.2388821 C81.053352,48.6710984 80.9724289,45.9006051 80.9717362,44.6495361 L80.9717879,44.5563596 L80.979768,30.2046479 C80.979768,28.3055488 80.979768,26.8540173 81.479448,25.6280713 C82.280808,23.3556389 84.487608,21.9206839 86.987448,21.5379812 C92.5967117,20.6828889 92.8806312,24.9643335 92.8950019,26.4280445 Z M106.909573,26.7485489 L106.911936,26.9499452 L103.157136,27.5243596 C103.160016,24.1715668 102.909456,22.8598551 101.005056,23.1495848 C99.101376,23.440756 99.051696,25.1481434 99.051696,25.9971524 C99.048936,27.4842095 99.3721722,28.3689267 100.985893,29.7398182 L101.203776,29.9214767 L103.056336,31.4385939 C105.155136,33.1690443 107.107056,34.8713866 107.105617,38.9196749 C107.104176,43.969765 104.348016,46.5910263 100.892736,47.1185939 C98.741376,47.4450803 96.337296,47.0119272 95.386176,44.4584137 C94.943936,43.2815568 94.8947982,42.3603868 94.8908555,39.0435054 L94.890816,37.6821975 L98.694576,37.102738 L98.6945695,38.5621768 C98.6967747,40.8798312 98.7164235,41.6169722 98.842176,42.2299452 C99.241776,43.6706659 100.196496,43.6742695 100.995696,43.551747 C103.010279,43.2449757 103.141513,41.3866225 103.15006,40.043571 L103.149904,39.6023619 C103.135172,38.2457838 102.894487,37.2221924 101.215967,35.694893 L100.998576,35.5012966 L98.846496,33.6793146 C96.044256,31.2079632 95.295456,29.871747 95.299056,26.9211164 C95.299056,23.2706659 96.852096,20.0829182 101.257056,19.4133686 C106.723626,18.5789867 106.861307,22.7183331 106.909573,26.7485489 Z M71.6231527,34.4321912 L71.512272,34.4483236 L68.911632,34.8454407 L68.903712,47.1459812 L71.307792,46.7812966 C72.657792,46.5744497 73.109232,46.4050803 73.360512,45.7679632 C73.6376566,45.1718717 73.6602024,41.7588796 73.6620311,40.4902012 L73.6622085,39.9172126 C73.6584365,34.8487914 73.4390507,34.1812244 71.6231527,34.4321912 Z M114.128136,12.1005038 L114.127416,17.9001434 L116.429256,17.5498731 L116.424936,20.8486119 L114.123096,21.2003236 L114.112296,39.7019452 C114.112296,41.4442294 114.675335,41.6003281 116.525085,41.241488 L116.714376,41.2039272 L116.712936,44.254738 C116.013096,44.4608641 115.311096,44.7181614 114.412536,44.8565398 C110.441659,45.4603504 110.068883,44.0323785 110.056843,41.301017 L110.056536,41.1210443 L110.068056,21.8179812 L107.663976,22.1841074 L107.666856,18.8846479 L110.122056,18.5098731 L110.123496,12.7095128 L114.128136,12.1005038 Z M86.985288,24.8410443 C85.0068273,25.1423553 84.9372621,26.6906535 84.9335209,27.9212882 L84.933288,28.0518551 L84.929688,33.2021254 L88.835688,32.6060893 L88.838568,27.0060893 L88.8380368,26.7833672 C88.8305104,25.7337258 88.71636,24.5766839 86.985288,24.8410443 Z M69.1976389,20.3514679 L68.917392,20.3942695 L68.913072,30.9953506 C72.316512,30.4764317 72.816912,30.4000353 73.220112,29.3881434 C73.53504,28.6655488 73.5676992,26.2429758 73.5710818,24.928191 L73.571472,24.5348101 C73.571472,23.8839993 73.521792,22.942738 73.473552,22.049765 C73.375632,20.6148101 73.274112,20.1794948 72.874512,19.9906659 L72.8168772,19.9679008 C72.5036461,19.8519161 72.1978766,19.8933552 69.1976389,20.3514679 Z M118.604808,3.35679205 C119.435688,3.35679205 120.148488,3.63499025 120.738168,4.19138664 C121.330008,4.74778304 121.623768,5.42021547 121.623768,6.20652178 C121.623768,7.01589115 121.319928,7.69769295 120.719448,8.25336863 C120.131928,8.78886412 119.425608,9.05625151 118.604808,9.05625151 C117.753768,9.05625151 117.036648,8.78093619 116.455608,8.23390917 C115.873848,7.68327854 115.582248,7.00796322 115.582248,6.20652178 C115.582248,5.37481007 115.896168,4.68147673 116.524728,4.12940466 C117.113688,3.61408935 117.807048,3.35679205 118.604808,3.35679205 Z M118.604808,3.84327854 C117.910008,3.84327854 117.315288,4.08183709 116.828568,4.55462989 C116.347608,5.02021547 116.107128,5.5708461 116.107128,6.20652178 C116.107128,6.86670196 116.351928,7.42742268 116.840808,7.88868394 C117.327528,8.35066592 117.914328,8.58129655 118.604808,8.58129655 C119.289528,8.58129655 119.877048,8.34922448 120.363768,7.88508034 C120.849048,7.41949475 121.092408,6.85877403 121.092408,6.20652178 C121.092408,5.57300826 120.850488,5.02165691 120.366648,4.55462989 C119.878488,4.08183709 119.289528,3.84327854 118.604808,3.84327854 Z M118.211112,4.63318845 C118.627272,4.63535061 118.857672,4.63607133 118.902312,4.63967493 C119.167272,4.65841367 119.387592,4.71390917 119.561832,4.80327854 C119.860632,4.95679205 120.009672,5.20976502 120.009672,5.55643169 C120.009672,5.82237763 119.929032,6.01408935 119.772792,6.13228754 C119.618712,6.2490443 119.422872,6.32039565 119.195352,6.34417944 C119.404872,6.38526052 119.561832,6.44435962 119.669112,6.52580106 C119.837592,6.65491303 119.934131,6.84756609 119.958275,7.10285251 L119.964312,7.23571097 L119.964312,7.51679205 C119.964312,7.54850376 119.965752,7.57877403 119.971512,7.60976502 L119.980152,7.6572425 L119.980152,7.6572425 L119.995272,7.70417944 L120.026232,7.79210736 L119.189592,7.79210736 C119.162952,7.69120646 119.144232,7.54562088 119.134872,7.35535061 C119.126232,7.1636389 119.106792,7.03535061 119.078712,6.96760286 C119.036232,6.85805331 118.953432,6.78093619 118.831032,6.73553079 C118.783512,6.71715241 118.714527,6.70323349 118.627418,6.69407808 L118.534392,6.68652178 L118.338552,6.67499025 L118.157112,6.67499025 L118.157112,7.79210736 L117.278712,7.79210736 L117.278712,4.631747 C117.486792,4.631747 117.797112,4.631747 118.211112,4.63318845 Z M118.368072,5.1881434 L118.157112,5.1881434 L118.157112,6.10562088 L118.496232,6.10562088 C118.701432,6.10562088 118.860552,6.06670196 118.975752,5.99030556 C119.089512,5.911747 119.147112,5.78850376 119.147112,5.61553079 C119.147112,5.44327854 119.057112,5.32147673 118.877112,5.25444971 C118.757592,5.21120646 118.589112,5.1881434 118.368072,5.1881434 Z" id="Combined-Shape" fill="#FFEC00"></path>
            <path d="M16.660944,73.3705578 L15.315984,78.817765 L14.498784,78.9395668 L13.577184,75.8938011 L12.654144,79.2148821 L11.837664,79.3359632 L10.499184,74.2901975 L11.520864,74.1381254 L12.294864,77.3309182 L13.210704,73.8851524 L13.942944,73.7763236 L14.858064,76.9482155 L15.639984,73.5233506 L16.660944,73.3705578 Z M20.2122779,75.883792 L20.216592,76.0390984 L20.216592,76.4664857 L17.921232,76.8081074 C17.921232,77.3018011 18.209952,77.6196389 18.724032,77.5432425 C19.074942,77.4909002 19.2698483,77.3717898 19.4688889,77.156459 L19.554912,77.0581975 L20.111472,77.5425218 C19.737792,77.9886479 19.378512,78.2560353 18.716832,78.3554948 C17.850672,78.483783 17.019792,78.1954948 17.019792,76.6409002 C17.019792,75.3875668 17.667792,74.5839632 18.618192,74.442702 C19.588104,74.2975488 20.1577392,74.9179758 20.2122779,75.883792 Z M23.7474,72.3139812 L23.7474,75.2912785 L24.96564,73.5399272 L26.07084,73.3748821 L24.76116,75.1175848 L26.16948,77.1990263 L25.0362,77.3683957 L24.13476,75.9038911 L23.7474,76.4184857 L23.7474,77.5608281 L22.83156,77.6970443 L22.83156,72.4509182 L23.7474,72.3139812 Z M37.459152,71.9782695 C37.7916611,72.2763858 37.8278396,72.8455169 37.8316695,73.3780976 L37.8315446,73.7111589 C37.8270864,74.2413902 37.788336,74.8185578 37.459152,75.2135848 C37.254672,75.4564677 36.923472,75.6388101 36.564912,75.6928641 C36.237942,75.7414227 35.9870445,75.7000375 35.7688086,75.5247715 L35.677152,75.4413326 L35.677152,77.1883596 L34.762032,77.3245758 L34.762032,72.0784497 L35.649072,71.9458371 L35.649072,72.3069182 C35.902512,71.9746659 36.177552,71.8225939 36.564912,71.7649362 C36.923472,71.7116029 37.254672,71.7944857 37.459152,71.9782695 Z M29.7702059,74.4577792 L29.77452,74.6130803 L29.77452,75.0404677 L27.47916,75.3828101 C27.47916,75.8765038 27.76788,76.1943416 28.28196,76.1179452 C28.63287,76.0656029 28.8277763,75.9464925 29.0268169,75.7306789 L29.11284,75.6321794 L29.66868,76.1172245 C29.29572,76.5633506 28.93644,76.830738 28.27476,76.9294767 C27.4086,77.0584857 26.57772,76.7701975 26.57772,75.2156029 C26.57772,73.9622695 27.22572,73.1579452 28.17612,73.0166839 C29.146032,72.8722155 29.7156672,73.4920263 29.7702059,74.4577792 Z M33.7917659,73.8581344 L33.79608,74.0134407 L33.79608,74.4408281 L31.50072,74.7824497 C31.50072,75.2761434 31.78944,75.5939812 32.3028,75.5175848 C32.65434,75.4652425 32.849325,75.3461321 33.0483755,75.1308013 L33.1344,75.0325398 L33.69096,75.5168641 C33.31728,75.963711 32.958,76.2310984 32.29632,76.3298371 C31.43016,76.4581254 30.59928,76.1698371 30.59928,74.6152425 C30.59928,73.3619092 31.24728,72.5583056 32.19768,72.4170443 C33.167592,72.2718911 33.7372272,72.8923182 33.7917659,73.8581344 Z M18.7293631,75.2295164 L18.618192,75.2383776 C18.308592,75.2845038 18.104112,75.4834227 18.005472,75.7270263 C17.963352,75.8383776 17.941077,75.9262155 17.9295345,76.0349317 L17.921232,76.1522515 L19.315152,75.9446839 C19.308672,75.7760353 19.287072,75.6765758 19.230912,75.5446839 C19.156932,75.3841434 19.023417,75.2661704 18.8306708,75.2366772 L18.7293631,75.2295164 Z M41.390496,71.0899812 L41.390496,74.9292605 L40.475376,75.0654767 L40.475376,71.2269182 L41.390496,71.0899812 Z M36.400681,72.6581144 L36.297072,72.6672785 C35.747712,72.7494407 35.677152,73.2316029 35.677152,73.8579092 C35.677152,74.4834948 35.747712,74.9519632 36.297072,74.8705218 C36.846432,74.7890803 36.916992,74.2989902 36.916992,73.6734047 C36.916992,73.1306059 36.8639936,72.7117742 36.4922477,72.6627509 L36.400681,72.6581144 Z M28.2872911,73.8034984 L28.17612,73.8123596 C27.86652,73.8592065 27.66204,74.0581254 27.5634,74.301729 C27.52128,74.4130803 27.499005,74.5005128 27.4874625,74.6093303 L27.47916,74.7269542 L28.87308,74.5186659 C28.86588,74.350738 28.845,74.2505578 28.78884,74.1186659 C28.71486,73.9581254 28.581345,73.8401524 28.3885988,73.8106592 L28.2872911,73.8034984 Z M43.541712,69.7452605 L43.541712,70.8796749 L44.189712,70.7823776 L44.189712,71.511747 L43.541712,71.6090443 L43.541712,73.4512065 C43.541712,73.6441794 43.6172332,73.7532785 43.7822637,73.7558109 L43.858512,73.7503056 L44.189712,73.6998551 L44.189712,74.5106659 L43.690032,74.5856209 C42.990057,74.6896749 42.6678711,74.2527661 42.6303321,73.7481974 L42.626592,73.6465218 L42.626592,71.7452605 L42.238512,71.8029182 L42.238512,71.0742695 L42.626592,71.0166119 L42.626592,69.8814767 L43.541712,69.7452605 Z M32.3088511,73.2038588 L32.19768,73.21272 C31.88808,73.2588461 31.6836,73.4584857 31.58496,73.7020893 C31.54284,73.8134407 31.52016,73.9008731 31.5087188,74.0093866 L31.50072,74.1265939 L32.89464,73.9190263 C32.88744,73.7510984 32.86656,73.6509182 32.8104,73.5190263 C32.73642,73.3584857 32.602905,73.2405128 32.4101588,73.2110195 L32.3088511,73.2038588 Z M49.3503672,70.2634774 L49.460544,70.3579452 L48.840624,71.0988461 C48.650544,70.9129002 48.489264,70.848756 48.249504,70.884792 C48.031344,70.9172245 47.862144,71.0231704 47.728224,71.2134407 C47.587824,71.4174047 47.523744,71.6855128 47.523744,72.0912785 C47.523744,72.4956029 47.587824,72.7514587 47.728224,72.9150623 C47.862144,73.0642515 48.031344,73.1204677 48.249504,73.0880353 C48.4550126,73.0571473 48.6028624,72.9701313 48.7606116,72.7938552 L48.840624,72.6981254 L49.460544,73.2458731 C49.136544,73.6480353 48.756384,73.8743416 48.249504,73.9500173 C47.517264,74.0588461 46.608624,73.7828101 46.608624,72.2274948 C46.608624,70.6729002 47.517264,70.1316389 48.249504,70.0228101 C48.700064,69.9555428 49.0504996,70.0312096 49.3503672,70.2634774 Z M52.788672,69.8169002 C53.119152,70.1289722 53.204112,70.5513146 53.204112,71.2439272 C53.204112,71.9430263 53.119152,72.3913146 52.788672,72.8014047 C52.563312,73.0853686 52.190352,73.3621254 51.647472,73.4435668 C51.106032,73.5242875 50.739552,73.3570803 50.514192,73.1408641 C50.183712,72.828792 50.098752,72.4064497 50.098752,71.7066299 C50.098752,71.0140173 50.183712,70.5664497 50.514192,70.1563596 C50.739552,69.8716749 51.106032,69.5970803 51.647472,69.5156389 C52.190352,69.4349182 52.563312,69.5999632 52.788672,69.8169002 Z M61.69644,70.8528641 L61.69644,72.3051164 L60.68988,73.2658371 L60.68988,71.0034948 L61.69644,70.8528641 Z M67.39704,67.2104857 L65.82744,71.9023776 C65.74968,72.1279632 65.66544,72.3023776 65.5524,72.4371524 C65.3721943,72.6539864 65.1443804,72.7691546 64.8920823,72.8262281 L64.764,72.8501254 L64.40472,72.9034587 L64.40472,72.0414767 L64.6164,72.0104857 C64.84383,71.9758011 64.9532925,71.9085601 65.0388445,71.6957814 L65.07432,71.5953506 L65.22912,71.1009362 L63.9756,67.720756 L64.9404,67.5773326 L65.70072,69.836792 L66.43368,67.3553506 L67.39704,67.2104857 Z M56.747952,69.2263416 C57.079152,69.5384137 57.164112,69.960756 57.164112,70.6533686 C57.164112,71.3524677 57.079152,71.800756 56.747952,72.2108461 C56.522592,72.4948101 56.150352,72.7715668 55.607472,72.8530083 C55.065312,72.933729 54.699552,72.7665218 54.474192,72.5503056 C54.142992,72.2382335 54.058032,71.8158911 54.058032,71.1160713 C54.058032,70.4234587 54.142992,69.9758911 54.474192,69.5658011 C54.699552,69.2811164 55.065312,69.0065218 55.607472,68.9250803 C56.150352,68.8443596 56.522592,69.0094047 56.747952,69.2263416 Z M51.7525862,70.3693585 L51.647472,70.3783416 C51.464592,70.405729 51.331392,70.4842875 51.225552,70.6104137 C51.035472,70.8374407 51.013872,71.1718551 51.013872,71.5704137 C51.013872,71.9682515 51.035472,72.3041074 51.225552,72.4741975 C51.331392,72.5693326 51.464592,72.6082515 51.647472,72.5808641 C51.831072,72.5534767 51.972192,72.4734767 52.077312,72.3473506 C52.267392,72.1210443 52.288992,71.7779812 52.288992,71.3801434 C52.288992,70.9815848 52.267392,70.6536569 52.077312,70.4835668 C52.01424,70.4264857 51.938208,70.389902 51.8478163,70.3758393 L51.7525862,70.3693585 Z M59.041728,67.0494767 L59.041728,71.1388461 C59.041728,71.338756 59.1111855,71.443756 59.2848292,71.4432239 L59.365728,71.4365038 L59.717808,71.3846119 L59.717808,72.1954227 L59.195808,72.2725398 C58.489758,72.3779452 58.1678252,71.9404874 58.1303416,71.4358448 L58.126608,71.3341614 L58.126608,67.1864137 L59.041728,67.0494767 Z M55.7122406,69.7788 L55.607472,69.787783 C55.424592,69.8144497 55.290672,69.893729 55.184832,70.0198551 C54.994752,70.2468821 54.973872,70.5812966 54.973872,70.9798551 C54.973872,71.3776929 54.994752,71.7135488 55.184832,71.8836389 C55.290672,71.978774 55.424592,72.0169722 55.607472,71.9903056 C55.790352,71.9629182 55.931472,71.8829182 56.037312,71.756792 C56.227392,71.529765 56.247552,71.1874227 56.247552,70.7895848 C56.247552,70.3910263 56.227392,70.0623776 56.037312,69.8930083 C55.973808,69.8359272 55.8976032,69.7993434 55.8072979,69.7852807 L55.7122406,69.7788 Z M70.57944,67.1634227 C70.91064,67.4754948 70.99488,67.8978371 70.99488,68.5904497 C70.99488,69.2895488 70.91064,69.7378371 70.57944,70.1479272 C70.3548,70.4311704 69.98112,70.7086479 69.43896,70.7893686 C68.8968,70.8700893 68.53176,70.7036029 68.30568,70.4873866 C67.97448,70.1753146 67.89024,69.7529722 67.89024,69.0531524 C67.89024,68.3605398 67.97448,67.9129722 68.30568,67.5028821 C68.53176,67.2181975 68.8968,66.9428821 69.43896,66.8614407 C69.98112,66.7814407 70.3548,66.945765 70.57944,67.1634227 Z M80.681256,65.2292966 L80.681256,68.9280353 C80.681256,69.8491164 80.054856,70.6130803 79.069176,70.7601074 C78.56244,70.8353506 78.1980048,70.7944209 77.8525236,70.5474739 L77.737896,70.4574047 L78.308136,69.7683957 C78.513336,69.9442515 78.717096,70.0019092 79.026696,69.9565038 C79.5337975,69.8806618 79.734767,69.5051364 79.7626848,69.1405705 L79.766136,69.0498371 L79.766136,68.6592065 C79.527096,68.9756029 79.252056,69.119747 78.892776,69.1730803 C78.534216,69.2264137 78.223896,69.1478551 78.020136,68.9640713 C77.675256,68.6541614 77.645736,68.1655128 77.645736,67.4945218 C77.645736,66.8235308 77.675256,66.3334407 78.020136,65.9211884 C78.223896,65.6768641 78.540696,65.5046119 78.900696,65.4505578 C79.239636,65.4001074 79.4754922,65.449533 79.6989454,65.6350468 L79.794216,65.7229902 L79.794216,65.3619092 L80.681256,65.2292966 Z M41.398056,69.6519272 L41.398056,70.4331884 L40.461336,70.5722875 L40.461336,69.7910263 L41.398056,69.6519272 Z M75.003408,66.0763596 L75.003408,69.9149182 L74.109168,70.0489722 L74.109168,69.6943776 C73.869408,69.9956389 73.531728,70.178702 73.193328,70.2298731 C72.827568,70.2839272 72.532368,70.2024857 72.327888,70.0194227 C72.069588,69.7873506 71.9772142,69.4912695 71.9581567,69.1393875 L71.954208,68.9851884 L71.954208,66.5318551 L72.870048,66.3941975 L72.870048,68.7149182 C72.870048,69.2388821 73.186848,69.3678911 73.474848,69.3253686 C73.740168,69.285729 74.033923,69.0934767 74.0810397,68.6581243 L74.087568,68.5332966 L74.087568,66.2125758 L75.003408,66.0763596 Z M69.5437978,67.715512 L69.43896,67.7241434 C69.25608,67.7515308 69.12216,67.8308101 69.01632,67.9569362 C68.82696,68.1832425 68.80536,68.5183776 68.80536,68.9169362 C68.80536,69.314774 68.82696,69.6499092 69.01632,69.82072 C69.12216,69.9158551 69.25608,69.9540533 69.43896,69.9266659 C69.62184,69.8999993 69.76368,69.8199993 69.8688,69.6938731 C70.0596,69.4668461 70.07976,69.1245038 70.07976,68.7266659 C70.07976,68.3281074 70.0596,67.9994587 69.8688,67.8300893 C69.805728,67.7730083 69.7294368,67.7364245 69.6389933,67.7222061 L69.5437978,67.715512 Z M84.8400539,66.2441524 L84.844368,66.3994587 L84.844368,66.8268461 L82.549008,67.1684677 C82.549008,67.6621614 82.837008,67.9799993 83.351088,67.9036029 C83.702628,67.8512605 83.897613,67.7321502 84.0966635,67.5168194 L84.182688,67.4185578 L84.738528,67.9028821 C84.364848,68.3490083 84.006288,68.6163957 83.343888,68.7158551 C82.478448,68.8441434 81.647568,68.5558551 81.647568,67.0012605 C81.647568,65.7479272 82.294128,64.9443236 83.245968,64.8030623 C84.21588,64.6579092 84.7855152,65.2783362 84.8400539,66.2441524 Z M79.2627871,66.2647585 L79.160616,66.2736209 C78.618456,66.3550623 78.562296,66.8494767 78.562296,67.3575848 C78.562296,67.8656929 78.618456,68.3514587 79.160616,68.270738 C79.702776,68.1900173 79.766136,67.6862335 79.766136,67.1781254 C79.766136,66.737765 79.7185456,66.3206823 79.3529287,66.2698351 L79.2627871,66.2647585 Z M86.844384,63.2862335 L86.844384,64.4206479 L87.491664,64.3240713 L87.491664,65.0534407 L86.844384,65.1500173 L86.844384,66.9921794 C86.844384,67.1851524 86.9204565,67.2942515 87.0851424,67.2967839 L87.161184,67.2912785 L87.491664,67.2415488 L87.491664,68.0523596 L86.991984,68.1273146 C86.292009,68.2313686 85.9704559,67.7938264 85.932996,67.2891785 L85.929264,67.1874948 L85.929264,65.2862335 L85.541904,65.3438911 L85.541904,64.6152425 L85.929264,64.5575848 L85.929264,63.4224497 L86.844384,63.2862335 Z M91.09404,62.6520713 L91.09404,63.7864857 L91.74132,63.6899092 L91.74132,64.4192785 L91.09404,64.5158551 L91.09404,66.3580173 C91.09404,66.5509902 91.1701125,66.6600893 91.3343161,66.6626217 L91.41012,66.6571164 L91.74132,66.6073866 L91.74132,67.4181975 L91.24236,67.4931524 C90.542385,67.5972065 90.2201991,67.1596642 90.1826601,66.6550163 L90.17892,66.5533326 L90.17892,64.6520713 L89.79156,64.709729 L89.79156,63.9810803 L90.17892,63.9234227 L90.17892,62.7882875 L91.09404,62.6520713 Z M93.623688,61.8912065 L93.623688,63.6519272 C93.870648,63.3499452 94.180248,63.1712065 94.504248,63.1236389 C95.2591468,63.0110369 95.6785705,63.4698243 95.7253023,64.2001671 L95.729688,64.3402155 L95.729688,66.8238191 L94.814568,66.9600353 L94.814568,64.6169722 C94.814568,64.1088641 94.504248,63.9856209 94.215528,64.0288641 C93.9530553,64.067521 93.6786817,64.2544914 93.6309648,64.6645008 L93.623688,64.7942695 L93.623688,67.1373326 L92.708568,67.2742695 L92.708568,62.0274227 L93.623688,61.8912065 Z M83.3571082,65.5898768 L83.245968,65.598738 C82.935648,65.6448641 82.731888,65.8445038 82.632528,66.0881074 C82.590408,66.1989182 82.568133,66.2866209 82.5568942,66.3953033 L82.549008,66.5126119 L83.943648,66.3050443 C83.936448,66.1363957 83.914128,66.0369362 83.857968,65.9050443 C83.783988,65.7445038 83.650878,65.6265308 83.4583342,65.5970375 L83.3571082,65.5898768 Z M99.8587499,64.003792 L99.863064,64.1590984 L99.863064,64.5864857 L97.567704,64.9288281 C97.567704,65.4225218 97.855704,65.7396389 98.369784,65.6632425 C98.721324,65.6109002 98.916309,65.4923416 99.1153595,65.2766659 L99.201384,65.1781975 L99.757224,65.6625218 C99.383544,66.1093686 99.024984,66.376756 98.362584,66.4754948 C97.497144,66.603783 96.666264,66.3162155 96.666264,64.7616209 C96.666264,63.5082875 97.313544,62.7039632 98.264664,62.562702 C99.234576,62.4175488 99.8042112,63.0379758 99.8587499,64.003792 Z M103.393368,60.4340533 L103.393368,62.1803596 C103.633128,61.8654047 103.907448,61.7212605 104.280408,61.6650443 C104.639688,61.611711 104.970168,61.6945939 105.174648,61.8776569 C105.540408,62.2063056 105.548328,62.8614407 105.548328,63.4358551 L105.54774,63.6105657 C105.543166,64.1409074 105.503832,64.7185939 105.174648,65.1129722 C104.970168,65.3565758 104.639688,65.5389182 104.280408,65.5929722 C103.941468,65.6434227 103.689074,65.5962042 103.461969,65.411725 L103.366008,65.3241434 L103.366008,65.6852245 L102.478248,65.8171164 L102.478248,60.5709902 L103.393368,60.4340533 Z M109.592862,62.5518332 L109.597176,62.7071344 L109.597176,63.1345218 L107.301816,63.4768641 C107.301816,63.9705578 107.589816,64.2876749 108.103896,64.2119993 C108.455436,64.1596569 108.650421,64.0405466 108.849471,63.8247329 L108.935496,63.7262335 L109.491336,64.2112785 C109.117656,64.6574047 108.759096,64.924792 108.096696,65.0235308 C107.231256,65.1525398 106.400376,64.8642515 106.400376,63.3096569 C106.400376,62.0563236 107.047656,61.2519993 107.998776,61.110738 C108.968688,60.9662695 109.538323,61.5860803 109.592862,62.5518332 Z M104.116302,62.5580877 L104.012568,62.5673866 C103.463928,62.6495488 103.393368,63.131711 103.393368,63.7580173 C103.393368,64.3836029 103.463928,64.8520713 104.012568,64.7706299 C104.562648,64.6884677 104.632488,64.1983776 104.632488,63.572792 C104.632488,63.0299932 104.58003,62.6111616 104.20796,62.5626075 L104.116302,62.5580877 Z M113.164523,60.6828229 L113.286528,60.7711344 L112.723488,61.4529362 C112.511808,61.2842875 112.188528,61.2741975 111.871728,61.3210443 C111.505248,61.3758191 111.350448,61.5761794 111.350448,61.7678911 C111.350448,61.8921754 111.394821,62.0272794 111.631732,62.0426073 L111.729888,62.0424857 L112.308048,62.0150984 C113.033808,61.9805038 113.399568,62.330774 113.399568,62.9794227 C113.399568,63.8269902 112.709808,64.3358191 111.842928,64.4641074 C111.318637,64.5433866 110.840164,64.5595284 110.408592,64.2482864 L110.280528,64.1448281 L110.878848,63.4298731 C111.181968,63.7008641 111.575808,63.6864497 111.857328,63.6446479 C112.173408,63.5970803 112.504608,63.4378011 112.504608,63.1495128 C112.504608,62.9823957 112.429638,62.8715623 112.216993,62.8551561 L112.117248,62.8540173 L111.540528,62.8806839 C110.878848,62.9138371 110.469888,62.6723957 110.469888,61.9653686 C110.469888,61.1689722 111.139488,60.6421254 111.885408,60.5304137 C112.392288,60.4548181 112.826919,60.4720442 113.164523,60.6828229 Z M98.3758337,63.3495164 L98.264664,63.3583776 C97.955064,63.4045038 97.750584,63.6041434 97.651224,63.847747 C97.609104,63.9590984 97.587234,64.0465308 97.575894,64.1553484 L97.567704,64.2729722 L98.962344,64.0646839 C98.955144,63.8960353 98.932824,63.7965758 98.876664,63.6646839 C98.803224,63.5041434 98.669844,63.3861704 98.4771315,63.3566772 L98.3758337,63.3495164 Z M115.370136,59.0316029 L115.370136,60.1660173 L116.017416,60.0694407 L116.017416,60.7988101 L115.370136,60.8953866 L115.370136,62.7375488 C115.370136,62.9305218 115.446208,63.0396209 115.610894,63.0421533 L115.686936,63.0366479 L116.017416,62.9869182 L116.017416,63.797729 L115.517736,63.8719632 C114.818436,63.9766929 114.496292,63.5391929 114.458756,63.0345477 L114.455016,62.9328641 L114.455016,61.0316029 L114.067656,61.0892605 L114.067656,60.3606119 L114.455016,60.3029542 L114.455016,59.1678191 L115.370136,59.0316029 Z M118.105632,62.5060533 L118.105632,63.4862335 L117.132912,63.6310984 L117.132912,62.6516389 L118.105632,62.5060533 Z M108.109946,61.8975525 L107.998776,61.9064137 C107.689176,61.9532605 107.484696,62.1521794 107.386056,62.395783 C107.343396,62.5071344 107.321391,62.5945668 107.310017,62.7033844 L107.301816,62.8210083 L108.696456,62.61272 C108.688536,62.444792 108.666936,62.3446119 108.610776,62.21272 C108.537336,62.0521794 108.403956,61.9342065 108.211243,61.9047132 L108.109946,61.8975525 Z M118.182888,58.2281434 L117.964008,61.8634587 L117.274248,61.9665218 L117.055368,58.3960713 L118.182888,58.2281434 Z" id="Combined-Shape" fill="#FFFFFF"></path>
        </g>
    </g>
</svg>